<svg width="88" height="88" viewBox="0 0 88 88" fill="none" xmlns="http://www.w3.org/2000/svg">
<path d="M73.3338 0H14.6662C10.7803 0.0123283 7.05703 1.56147 4.30925 4.30925C1.56147 7.05703 0.0123283 10.7803 0 14.6662V73.3338C0 81.397 6.60296 88 14.6662 88H73.3338C81.397 88 88 81.397 88 73.3338V14.6662C88 6.60296 81.397 0 73.3338 0ZM65.3118 61.8054C64.5792 63.572 63.4175 65.1278 61.9319 66.3321C60.3836 67.5779 58.4366 68.6091 56.0303 69.3407C53.6377 70.0859 50.7886 70.4572 47.4802 70.4572H23.9037V19.1213H48.8415C53.4534 19.1213 57.1495 20.1526 59.9134 22.2729C62.7075 24.3933 64.0825 27.5724 64.0825 31.8405C64.0825 34.4338 63.4527 36.6394 62.1904 38.471C60.9282 40.3025 59.1103 41.7216 56.7618 42.7116V42.8848C59.8996 43.5449 62.3197 45.0327 63.9092 47.34C65.4988 49.6473 66.3293 52.5679 66.3293 56.0908C66.3314 58.0113 65.9567 59.9136 65.2265 61.6899L65.3118 61.7889V61.8054ZM55.1282 49.1578C53.6377 47.7827 51.5174 47.109 48.7975 47.109H32.9405V63.1227H48.8388C51.5449 63.1227 53.6789 62.4214 55.1832 61.0024C56.6875 59.5834 57.4465 57.5648 57.4465 54.9852C57.419 52.4496 56.6875 50.4888 55.1832 49.155H55.1117L55.1282 49.1578ZM52.9364 38.801C54.3829 37.5689 55.098 35.8061 55.098 33.5015C55.098 30.922 54.4544 29.0904 53.1509 28.0454C51.8611 27.0003 49.9993 26.4558 47.5517 26.4558H32.8855V40.6215H47.5517C49.6858 40.6215 51.5201 39.9917 52.9227 38.8037L52.9364 38.801Z" fill="#0FFFF1"/>
</svg>
