<svg width="86" height="108" viewBox="0 0 86 108" fill="none" xmlns="http://www.w3.org/2000/svg">
<path d="M21.4492 0H33.7317V4.81128H26.5852V9.62255H33.7317V14.4338H21.4492V0Z" fill="#0FFFF1"/>
<path d="M36.1853 0H48.4726V4.18644H41.3261V5.02104H48.4726V14.6436H36.1853V10.2519H43.3319V9.41278H36.1853V0Z" fill="#0FFFF1"/>
<path d="M50.9306 0H63.2084V4.18644H56.0618V5.02104H63.2084V14.6436H50.9306V10.2519H58.0771V9.41278H50.9306V0Z" fill="#0FFFF1"/>
<path fill-rule="evenodd" clip-rule="evenodd" d="M42.8362 107.116L9.75261 98.5106L0 21.0526H85.7582L76.0104 98.5017L42.8362 107.116ZM19.2813 56.1151L20.1913 65.6127H55.3379L54.1611 77.931L42.8505 80.7964H42.841L31.5495 77.9399L30.8253 70.366H20.6439L22.0637 85.2818L42.8362 90.6822L63.6421 85.2818L66.1767 58.6636L66.4245 56.1151L68.254 36.8834H17.4566L18.3808 46.3855H57.1436L56.2193 56.1151H19.2813V56.1151Z" fill="#0FFFF1"/>
</svg>
