<svg width="70" height="110" viewBox="0 0 70 110" fill="none" xmlns="http://www.w3.org/2000/svg">
<path d="M51.9416 36.369C56.4686 36.2271 60.7646 34.249 63.9187 30.8543C67.0729 27.4595 68.837 22.915 68.837 18.1845C68.837 13.454 67.0729 8.90951 63.9187 5.51475C60.7646 2.11998 56.4686 0.141906 51.9416 0H17.1162C12.5892 0.141906 8.29315 2.11998 5.13903 5.51475C1.98492 8.90951 0.220815 13.454 0.220815 18.1845C0.220815 22.915 1.98492 27.4595 5.13903 30.8543C8.29315 34.249 12.5892 36.2271 17.1162 36.369C12.5496 36.4516 8.19683 38.4044 4.99538 41.8067C1.79393 45.209 0 49.7885 0 54.559C0 59.3294 1.79393 63.9089 4.99538 67.3112C8.19683 70.7135 12.5496 72.6663 17.1162 72.7489C12.5719 72.8652 8.25125 74.8324 5.07661 78.2305C1.90197 81.6286 0.124949 86.1883 0.124949 90.9361C0.124949 95.684 1.90197 100.244 5.07661 103.642C8.25125 107.04 12.5719 109.007 17.1162 109.123C21.7344 109.12 26.1626 107.203 29.4276 103.791C32.6927 100.38 34.5275 95.7543 34.5289 90.9307V36.369H51.9416Z" fill="#0FFFF1"/>
<path d="M51.9418 72.7431C61.5586 72.7431 69.3545 64.6004 69.3545 54.5559C69.3545 44.5114 61.5586 36.3687 51.9418 36.3687C42.3251 36.3687 34.5291 44.5114 34.5291 54.5559C34.5291 64.6004 42.3251 72.7431 51.9418 72.7431Z" fill="#0FFFF1"/>
</svg>
