<svg width="43" height="67" viewBox="0 0 43 67" fill="none" xmlns="http://www.w3.org/2000/svg">
<path d="M31.8913 22.33C34.6708 22.2429 37.3085 21.0283 39.2451 18.944C41.1817 16.8597 42.2648 14.0694 42.2648 11.165C42.2648 8.26054 41.1817 5.4703 39.2451 3.38597C37.3085 1.30163 34.6708 0.0871281 31.8913 0H10.5091C7.72957 0.0871281 5.09186 1.30163 3.15528 3.38597C1.21871 5.4703 0.135577 8.26054 0.135577 11.165C0.135577 14.0694 1.21871 16.8597 3.15528 18.944C5.09186 21.0283 7.72957 22.2429 10.5091 22.33C7.70527 22.3807 5.03272 23.5797 3.06708 25.6686C1.10144 27.7576 0 30.5694 0 33.4983C0 36.4273 1.10144 39.2391 3.06708 41.328C5.03272 43.417 7.70527 44.6159 10.5091 44.6667C7.71897 44.7381 5.06613 45.9459 3.11696 48.0323C1.16778 50.1186 0.0767166 52.9182 0.0767166 55.8333C0.0767166 58.7484 1.16778 61.548 3.11696 63.6344C5.06613 65.7208 7.71897 66.9286 10.5091 67C13.3446 66.9982 16.0634 65.8207 18.0681 63.7262C20.0728 61.6317 21.1993 58.7916 21.2002 55.83V22.33H31.8913Z" fill="#0FFFF1"/>
<path d="M31.8914 44.6632C37.796 44.6632 42.5826 39.6637 42.5826 33.4965C42.5826 27.3293 37.796 22.3298 31.8914 22.3298C25.9869 22.3298 21.2003 27.3293 21.2003 33.4965C21.2003 39.6637 25.9869 44.6632 31.8914 44.6632Z" fill="#0FFFF1"/>
</svg>
