<svg width="84" height="105" viewBox="0 0 84 105" fill="none" xmlns="http://www.w3.org/2000/svg">
<path d="M9.65356 0H14.6753V4.64772H19.27V0H24.2917V14.0693H19.27V9.36066H14.6753V14.0693H9.65821V0H9.65356Z" fill="#0FFFF1"/>
<path d="M30.8912 4.66511H26.4729V0H40.3359V4.66511H35.9129V14.0693H30.8912V4.66511Z" fill="#0FFFF1"/>
<path d="M42.5354 0H47.7706L50.9916 4.94337L54.2079 0H59.4431V14.0693H54.4446V7.09549L50.9916 12.0997H50.9034L47.4457 7.09984V14.0693H42.5354V0V0Z" fill="#0FFFF1"/>
<path d="M61.9401 0H66.9664V9.42153H74.021V14.0736H61.9401V0V0Z" fill="#0FFFF1"/>
<path fill-rule="evenodd" clip-rule="evenodd" d="M9.49576 95.9629L0 20.5081H83.5404L74.04 95.9542L41.7238 104.345L9.49576 95.9629ZM28.6961 54.6595L27.7958 45.1814H65.5978L66.4796 35.9295H17.0051L19.6691 63.9158H53.9068L52.7604 75.9155L41.7424 78.7068H41.7331L30.7336 75.9242L30.0281 68.5461H20.1054L21.4885 83.0762L41.7238 88.337L61.9916 83.0762L64.4607 57.1464L64.7021 54.6638H28.6961V54.6595Z" fill="#0FFFF1"/>
</svg>
