<svg width="94" height="94" viewBox="0 0 94 94" fill="none" xmlns="http://www.w3.org/2000/svg">
<path d="M41.2425 41.8983C40.8508 40.653 40.4983 39.4479 40.1067 38.2026C39.715 36.9573 39.3625 35.7923 39.0492 34.6273C38.7358 33.5026 38.4617 32.4581 38.1875 31.494H38.1092C37.7567 33.2214 37.3258 34.9487 36.7775 36.6761C36.19 38.6043 35.6025 40.6128 34.9758 42.6214C34.4275 44.6701 33.84 46.5581 33.2525 48.2453H43.2008C42.9658 47.3977 42.6525 46.3974 42.3 45.349C41.9475 44.2684 41.595 43.1034 41.2425 41.8983V41.8983ZM77.3542 0H16.6458C7.44167 0 0 7.63248 0 17.0726V76.9273C0 86.3675 7.44167 94 16.6458 94H77.3542C86.5583 94 94 86.3675 94 76.9273V17.0726C94 7.63248 86.5583 0 77.3542 0ZM57.575 66.4026H49.3853C49.115 66.4427 48.8408 66.2419 48.7625 65.9607L45.5508 56.4H30.9808L28.0042 65.8402C27.9258 66.2017 27.6125 66.4427 27.26 66.4066H19.8967C19.4658 66.4066 19.3483 66.1615 19.4658 65.6835L32.0775 28.441C32.195 28.0393 32.3125 27.5974 32.4692 27.1154C32.6258 26.2718 32.7042 25.388 32.7042 24.5043C32.665 24.3034 32.8217 24.1026 33.0175 24.0624H43.1617C43.475 24.0624 43.6317 24.1829 43.6708 24.3838L57.9667 65.7598C58.0842 66.1977 57.9667 66.4026 57.575 66.4026V66.4026ZM70.8917 65.8C70.8917 66.2419 70.7389 66.4427 70.3864 66.4427H62.7058C62.3142 66.4427 62.1183 66.1977 62.1183 65.8V34.8684C62.1183 34.4667 62.2789 34.306 62.6314 34.306H70.3864C70.7389 34.306 70.8917 34.5068 70.8917 34.8684V65.8V65.8ZM70.0731 29.5256C69.6105 30.0074 69.0528 30.3822 68.4374 30.6247C67.822 30.8672 67.1631 30.9718 66.505 30.9316C65.2125 30.9718 63.9592 30.4496 63.0153 29.5256C62.1179 28.5193 61.64 27.1929 61.6836 25.8299C61.6444 24.4641 62.1536 23.1786 63.0897 22.2547C64.0375 21.3308 65.2908 20.8487 66.5833 20.8487C68.1148 20.8487 69.2819 21.3308 70.1475 22.2547C71.0092 23.2188 71.4792 24.5043 71.44 25.8299C71.4792 27.1957 71.0092 28.5214 70.0731 29.5256V29.5256Z" fill="#0FFFF1"/>
</svg>
