<svg width="93" height="87" viewBox="0 0 93 87" fill="none" xmlns="http://www.w3.org/2000/svg">
<path fill-rule="evenodd" clip-rule="evenodd" d="M0 0H93V87H0V0ZM71.0946 72.935C66.7818 72.935 64.3444 70.8325 62.4727 67.9688L55.3699 71.8294C57.9351 76.5709 63.178 80.1886 71.2961 80.1886C79.5964 80.1886 85.777 76.1576 85.777 68.7953C85.777 61.9694 81.5843 58.9353 74.1598 55.9519L71.9742 55.0783C68.2232 53.5558 66.5996 52.5661 66.5996 50.112C66.5996 48.1291 68.2271 46.6102 70.7846 46.6102C73.2918 46.6102 74.9076 47.5999 76.4073 50.112L83.2118 46.0266C80.3326 41.2887 76.3414 39.4799 70.7846 39.4799C62.9804 39.4799 57.9855 44.1489 57.9855 50.2824C57.9855 56.9343 62.1705 60.0844 68.479 62.5965L70.6645 63.4738C74.6519 65.105 77.0273 66.0982 77.0273 68.9004C77.0273 71.2421 74.7139 72.935 71.0946 72.935V72.935ZM37.2271 72.8806C34.224 72.8806 32.9724 70.9594 31.6006 68.6756L24.4861 72.7066C26.5476 76.7884 30.6009 80.1741 37.5952 80.1741C45.3414 80.1741 50.6462 76.3207 50.6462 67.8564V39.9439H41.9081V67.7476C41.9081 71.833 40.0946 72.8806 37.2232 72.8806H37.2271Z" fill="#0FFFF1"/>
</svg>
