<svg width="94" height="94" viewBox="0 0 94 94" fill="none" xmlns="http://www.w3.org/2000/svg">
<path d="M38.5792 32.6202C37.13 32.0176 35.5633 31.7766 33.9575 31.8167C32.9392 31.8167 32.0383 31.8167 31.2942 31.8569C30.5108 31.8167 29.9625 31.8569 29.6883 31.8971V45.3951C30.2367 45.4353 30.7458 45.4754 31.2158 45.4754H33.2917C34.8192 45.4754 36.3467 45.2344 37.7958 44.7523C39.0492 44.3908 40.1458 43.6275 41.0075 42.6232C41.83 41.6189 42.2217 40.253 42.2217 38.4854C42.2608 37.2401 41.9475 35.9947 41.3208 34.91C40.6678 33.867 39.7073 33.0648 38.5792 32.6202ZM77.3542 0H16.6458C7.44167 0 0 7.63281 0 17.0734V76.9266C0 86.3672 7.44167 94 16.6458 94H77.3542C86.5583 94 94 86.3672 94 76.9266V17.0734C94 7.63281 86.5583 0 77.3542 0ZM48.4061 46.8011C46.8433 49.0508 44.65 50.7381 42.1042 51.7022C39.4408 52.7065 36.5033 53.0681 33.2917 53.0681C32.3517 53.0681 31.725 53.0681 31.3333 53.0279C30.9417 52.9877 30.3933 52.9877 29.6492 52.9877V65.8791C29.6883 66.1604 29.4925 66.4054 29.2183 66.4456H21.62C21.3067 66.4456 21.15 66.2809 21.15 65.9193V24.5857C21.15 24.3045 21.2675 24.1438 21.5417 24.1438C22.2075 24.1438 22.8342 24.1438 23.735 24.1036C24.675 24.0634 25.6542 24.0634 26.7117 24.0232C27.7692 23.9831 28.905 23.9831 30.1192 23.9429C31.3333 23.9027 32.5083 23.9027 33.6833 23.9027C36.895 23.9027 39.5583 24.3045 41.7517 25.1481C43.71 25.831 45.5117 26.9559 47 28.4422C48.2533 29.7278 49.2325 31.2945 49.8592 33.0219C50.4427 34.7092 50.7561 36.4366 50.7561 38.2444C50.76 41.6992 49.9767 44.5515 48.4061 46.8011V46.8011ZM76.1792 62.4283C75.0825 64.0352 73.5511 65.2766 71.7925 66.0077C69.8733 66.8473 67.5233 67.2852 64.6994 67.2852C62.9017 67.2852 61.1353 67.1285 59.3767 66.767C58.0058 66.5219 56.635 66.084 55.3817 65.4814C55.1075 65.3248 54.9078 65.0436 54.9469 64.7222V57.7321C54.9469 57.6156 54.99 57.4509 55.1075 57.3706C55.2211 57.2902 55.3425 57.3304 55.46 57.4107C56.9875 58.3347 58.5933 58.9815 60.3167 59.3792C61.8011 59.7809 63.3678 59.9818 64.9383 59.9818C66.4267 59.9818 67.4842 59.7769 68.1892 59.4154C68.8158 59.1342 69.2467 58.4512 69.2467 57.7281C69.2467 57.1617 68.9333 56.6434 68.3067 56.1212C67.68 55.603 66.3914 55.0004 64.4723 54.2291C62.4748 53.506 60.6378 52.5418 58.9106 51.3407C57.685 50.4403 56.6674 49.2746 55.93 47.926C55.3075 46.6549 54.9995 45.2463 55.0331 43.8244C55.0331 42.0969 55.5031 40.4498 56.3687 38.9635C57.3478 37.3566 58.7931 36.071 60.4773 35.2676C62.3142 34.3075 64.625 33.8655 67.4058 33.8655C69.0117 33.8655 70.6567 33.9861 72.2625 34.2271C73.4375 34.3878 74.5733 34.7092 75.6308 35.1511C75.7836 35.1912 75.9442 35.3519 76.0225 35.5126C76.0617 35.6733 76.1008 35.834 76.1008 35.9947V42.5428C76.1008 42.7035 76.0225 42.8642 75.905 42.9446C75.5525 43.0249 75.3567 43.0249 75.2 42.9446C74.025 42.3018 72.7717 41.8599 71.44 41.5787C69.9908 41.2573 68.5417 41.0565 67.0533 41.0565C66.27 41.0163 65.4475 41.1368 64.6994 41.3377C64.1942 41.4582 63.7594 41.7394 63.4852 42.1411C63.2894 42.4625 63.1719 42.8642 63.1719 43.2258C63.1719 43.5873 63.3286 43.9489 63.5675 44.2703C63.92 44.7122 64.3861 45.0737 64.8992 45.3549C65.7961 45.837 66.74 46.2789 67.6761 46.6806C69.795 47.4037 71.8317 48.4081 73.7117 49.6132C75.0042 50.4528 76.0617 51.5817 76.8019 52.9476C77.4286 54.2251 77.7419 55.6391 77.7028 57.0813C77.7458 58.9735 77.1975 60.8576 76.1792 62.4283V62.4283Z" fill="#0FFFF1"/>
</svg>
