<svg width="107" height="96" viewBox="0 0 107 96" fill="none" xmlns="http://www.w3.org/2000/svg">
<path d="M106.678 47.5117C106.678 40.4443 97.8281 33.7458 84.2578 29.5942C87.3914 15.7661 86.0002 4.7605 79.8662 1.23569C78.3799 0.403244 76.6977 -0.0157701 74.9946 0.0222245V4.86718C75.9947 4.86718 76.7992 5.0672 77.4748 5.43613C80.4307 7.13409 81.7153 13.5881 80.7152 21.8956C80.4752 23.9403 80.084 26.0916 79.6039 28.2874C75.0596 27.1924 70.4475 26.4009 65.798 25.9183C63.0282 22.097 60.0064 18.4648 56.7526 15.046C63.8423 8.45867 70.4963 4.8494 75.0212 4.8494V0C69.0384 0 61.2109 4.26267 53.2945 11.6546C45.3826 4.31157 37.5506 0.0888982 31.5722 0.0888982V4.93385C36.0749 4.93385 42.7512 8.52534 49.8408 15.0683C46.796 18.2686 43.7513 21.8956 40.8576 25.9183C36.1986 26.3956 31.5782 27.1946 27.0295 28.3097C26.5272 26.1361 26.1583 24.0292 25.8961 22.0068C24.8737 13.6948 26.1361 7.24076 29.0742 5.52503C29.7231 5.13388 30.5721 4.95608 31.5722 4.95608V0.111123C29.7498 0.111123 28.0919 0.502275 26.6606 1.32458C20.5488 4.8494 19.1798 15.8283 22.3312 29.6165C8.80537 33.7947 0 40.4665 0 47.5117C0 54.5791 8.84982 61.2776 22.4201 65.4247C19.2865 79.2572 20.6777 90.2629 26.8117 93.7832C28.2252 94.61 29.8787 95.0011 31.7011 95.0011C37.684 95.0011 45.5115 90.7385 53.4279 83.3466C61.3398 90.694 69.1673 94.9122 75.1501 94.9122C76.8663 94.9485 78.5613 94.5282 80.0618 93.6943C86.1735 90.174 87.5426 79.195 84.3911 65.4069C97.8725 61.2554 106.678 54.5569 106.678 47.5117ZM78.3638 33.0079C77.5192 35.9143 76.5403 38.7799 75.4302 41.5955C73.6129 38.0607 71.6176 34.6204 69.4518 31.2877C72.541 31.7456 75.5191 32.3101 78.3683 33.0079H78.3638ZM68.4072 56.1659C66.7137 59.0996 64.9713 61.8865 63.1667 64.4735C56.6426 65.0485 50.081 65.0559 43.5557 64.4957C39.8129 59.1493 36.5396 53.489 33.7724 47.5784C36.5353 41.6537 39.7947 35.9736 43.5157 30.5988C50.0381 30.0226 56.5982 30.0137 63.1222 30.5721C64.9268 33.1591 66.6915 35.9238 68.385 38.8397C70.0385 41.6844 71.5409 44.5736 72.9099 47.4895C71.5257 50.4407 70.0236 53.3352 68.4072 56.1659V56.1659ZM75.4302 53.339C76.6036 56.2504 77.6082 59.1662 78.4305 61.9932C75.5857 62.6911 72.581 63.2778 69.474 63.7312C71.6308 60.3682 73.6187 56.8999 75.4302 53.339V53.339ZM53.3834 76.5414C51.361 74.4523 49.3385 72.1276 47.3383 69.5807C49.2941 69.6696 51.2943 69.7362 53.3167 69.7362C55.3614 69.7362 57.3838 69.6918 59.3618 69.5807C57.406 72.1276 55.3836 74.4523 53.3834 76.5414ZM37.2039 63.7312C34.2069 63.2969 31.2316 62.7244 28.2874 62.0154C29.092 59.2107 30.0921 56.3171 31.2211 53.4279C32.1145 55.1614 33.0524 56.9038 34.0747 58.6462C35.097 60.3841 36.1371 62.0821 37.2039 63.7312ZM53.2723 18.4819C55.2947 20.5711 57.3172 22.8957 59.3174 25.4427C57.3616 25.3538 55.3614 25.2871 53.339 25.2871C51.2943 25.2871 49.2719 25.3316 47.2939 25.4427C49.2496 22.8957 51.2721 20.5711 53.2723 18.4819ZM37.1817 31.2922C35.0253 34.6478 33.0375 38.1088 31.2255 41.6622C30.0841 38.8284 29.0828 35.9401 28.2252 33.0079C31.0699 32.3323 34.0747 31.7456 37.1817 31.2922ZM17.5041 58.5128C9.80548 55.2325 4.82718 50.9254 4.82718 47.5117C4.82718 44.098 9.80548 39.7686 17.5041 36.5105C19.3709 35.706 21.4156 34.9859 23.5269 34.3147C24.7671 38.573 26.3983 43.009 28.4163 47.5561C26.5111 51.8329 24.8998 56.2347 23.5936 60.7309C21.5287 60.0915 19.4964 59.3513 17.5041 58.5128V58.5128ZM29.2031 89.5828C26.2472 87.8937 24.9626 81.4308 25.9627 73.1277C26.2028 71.0831 26.5939 68.9273 27.074 66.7315C31.3322 67.776 35.986 68.5806 40.8799 69.1051C43.6498 72.9263 46.6717 76.5585 49.9253 79.9773C42.8356 86.5647 36.1816 90.174 31.6567 90.174C30.803 90.1833 29.9602 89.9817 29.2031 89.5872V89.5828ZM80.7818 73.0166C81.8042 81.3241 80.5418 87.7826 77.6037 89.4983C76.9548 89.8895 76.1058 90.0628 75.1057 90.0628C70.603 90.0628 63.9267 86.4758 56.8371 79.9284C59.8819 76.737 62.9266 73.1055 65.8203 69.0828C70.4793 68.6056 75.0997 67.8066 79.6484 66.6915C80.1507 68.8873 80.5374 70.9942 80.7818 73.0166V73.0166ZM89.1516 58.5128C87.2848 59.3174 85.2401 60.0374 83.1288 60.7086C81.7996 56.1896 80.1661 51.7656 78.2394 47.4672C80.2396 42.9468 81.8442 38.533 83.0621 34.2925C85.2179 34.9637 87.2581 35.706 89.1738 36.5105C96.8724 39.7909 101.851 44.098 101.851 47.5117C101.829 50.9254 96.8502 55.2547 89.1516 58.5128V58.5128Z" fill="#0FFFF1"/>
<path d="M53.3171 57.4507C55.953 57.4507 58.481 56.4035 60.3449 54.5396C62.2088 52.6757 63.2559 50.1478 63.2559 47.5118C63.2559 44.8759 62.2088 42.3479 60.3449 40.484C58.481 38.6201 55.953 37.573 53.3171 37.573C50.6811 37.573 48.1531 38.6201 46.2892 40.484C44.4254 42.3479 43.3782 44.8759 43.3782 47.5118C43.3782 50.1478 44.4254 52.6757 46.2892 54.5396C48.1531 56.4035 50.6811 57.4507 53.3171 57.4507V57.4507Z" fill="#0FFFF1"/>
</svg>
