<svg width="120" height="72" viewBox="0 0 120 72" fill="none" xmlns="http://www.w3.org/2000/svg">
<path d="M93.5014 47.7767V0H85.0012V55.7394H119.002V47.7767H93.5014Z" fill="#0FFFF1"/>
<path d="M68.0016 0H51.0014C48.747 0 46.5849 0.838935 44.9909 2.33224C43.3968 3.82556 42.5012 5.85092 42.5012 7.96278V47.7767C42.5012 49.8885 43.3968 51.9139 44.9909 53.4072C46.5849 54.9005 48.747 55.7394 51.0014 55.7394H55.2514V63.7022C55.2514 65.8141 56.147 67.8394 57.7411 69.3327C59.3352 70.8261 61.4972 71.665 63.7516 71.665H72.2517V63.7022H63.7516V55.7394H68.0016C70.256 55.7394 72.4181 54.9005 74.0122 53.4072C75.6062 51.9139 76.5018 49.8885 76.5018 47.7767V7.96278C76.5018 5.85092 75.6062 3.82556 74.0122 2.33224C72.4181 0.838935 70.256 0 68.0016 0ZM51.0014 47.7767V7.96278H68.0016V47.7767H51.0014Z" fill="#0FFFF1"/>
<path d="M25.5004 55.7394H0V47.7767H25.5004V31.8511H8.50014C6.24576 31.8511 4.08372 31.0122 2.48963 29.5189C0.895548 28.0256 0 26.0002 0 23.8883V7.96278C0 5.85092 0.895548 3.82556 2.48963 2.33225C4.08372 0.838935 6.24576 0 8.50014 0H34.0006V7.96278H8.50014V23.8883H25.5004C27.7548 23.8883 29.9169 24.7273 31.5109 26.2206C33.105 27.7139 34.0006 29.7393 34.0006 31.8511V47.7767C34.0006 49.8885 33.105 51.9139 31.5109 53.4072C29.9169 54.9005 27.7548 55.7394 25.5004 55.7394Z" fill="#0FFFF1"/>
</svg>
