<svg width="101" height="96" viewBox="0 0 101 96" fill="none" xmlns="http://www.w3.org/2000/svg">
<path d="M101 48C101 74.517 78.3981 96 50.5 96C22.6019 96 0 74.517 0 48C0 21.483 22.6019 0 50.5 0C78.3981 0 101 21.483 101 48ZM72.578 17.751C67.4491 17.919 62.9798 20.607 59.6405 24.327C55.9414 28.407 53.4921 33.246 51.7152 38.172C48.5589 35.721 46.1254 32.517 41.047 31.125C39.0419 30.5426 36.919 30.426 34.8567 30.7852C32.7944 31.1443 30.8529 31.9687 29.1953 33.189C27.4748 34.4676 26.2107 36.2191 25.5751 38.205C24.0632 42.909 27.1879 47.109 28.6019 48.609L31.7077 51.765C32.3358 52.377 33.895 54 33.1217 56.313C32.3168 58.845 29.129 60.468 25.8402 59.517C24.3757 59.094 22.2705 58.05 22.7471 56.592C22.9459 55.983 23.391 55.548 23.634 55.032C23.8486 54.591 23.9623 54.249 24.0285 54.063C24.6219 52.203 23.8139 49.779 21.7087 49.17C19.7518 48.591 17.7665 49.047 16.9743 51.435C16.1032 54.156 17.4667 59.079 24.8018 61.236C33.3994 63.735 40.6462 59.295 41.6814 53.499C42.3253 49.875 40.5957 47.172 37.4394 43.719L34.8608 40.998C33.2984 39.531 32.7745 36.999 34.3842 35.061C35.7477 33.417 37.6888 32.733 40.8608 33.546C45.51 34.749 47.5678 37.794 51.0208 40.263C49.591 44.703 48.6504 49.155 47.814 53.154L47.3059 56.139C44.8408 68.418 42.966 75.171 38.0675 79.047C37.0796 79.704 35.6688 80.703 33.5636 80.778C32.4431 80.793 32.0643 80.079 32.0643 79.749C32.0296 79.014 32.6924 78.669 33.1343 78.342C33.775 78.015 34.7787 77.433 34.6967 75.639C34.6304 73.515 32.7745 71.67 30.0917 71.751C28.0875 71.811 25.0291 73.608 25.1458 76.89C25.2595 80.295 28.5956 82.842 33.6077 82.671C36.3063 82.59 42.2906 81.546 48.1896 74.874C55.0608 67.233 56.9861 58.467 58.4317 52.047L60.0445 43.59C60.944 43.686 61.9004 43.749 62.9514 43.779C71.4985 43.95 75.7753 39.735 75.8384 36.672C75.8889 34.812 74.5601 32.985 72.7168 33.033C71.9247 33.052 71.1615 33.3199 70.5465 33.7948C69.9315 34.2698 69.4994 34.9249 69.3176 35.658C68.923 37.362 72.0446 38.91 69.6111 40.41C67.8846 41.469 64.7789 42.222 60.4201 41.61L61.2123 37.437C62.8409 29.532 64.8262 19.812 72.4075 19.581C72.9662 19.548 74.9862 19.593 75.0209 20.862C75.0367 21.282 74.942 21.411 74.4149 22.362C73.9237 22.9815 73.6738 23.7439 73.7079 24.519C73.771 26.535 75.3839 27.864 77.7353 27.783C80.8568 27.69 81.7469 24.783 81.7122 23.298C81.5827 19.797 77.7006 17.61 72.5717 17.754L72.578 17.751Z" fill="#0FFFF1"/>
</svg>
