<svg width="115" height="115" viewBox="0 0 115 115" fill="none" xmlns="http://www.w3.org/2000/svg">
<path d="M112.826 52.3752L62.612 2.16966C61.9245 1.48181 61.1082 0.936167 60.2097 0.563889C59.3113 0.191612 58.3482 0 57.3757 0C56.4032 0 55.4401 0.191612 54.5417 0.563889C53.6432 0.936167 52.8269 1.48181 52.1394 2.16966L41.717 12.5917L54.9426 25.8169C56.5024 25.2844 58.1805 25.2011 59.7854 25.5765C61.3902 25.9519 62.8572 26.771 64.0189 27.9401C65.1806 29.1093 65.9902 30.5815 66.3553 32.1887C66.7204 33.7959 66.6263 35.4734 66.0837 37.0296L78.8277 49.7805C80.7132 49.1166 82.7685 49.1146 84.6552 49.7748C86.542 50.4349 88.1477 51.7179 89.2079 53.4124C90.2682 55.1069 90.7198 57.1119 90.4883 59.0974C90.2569 61.0828 89.3562 62.9302 87.9347 64.3354C86.4956 65.7833 84.5984 66.6867 82.5672 66.8912C80.536 67.0957 78.4968 66.5886 76.798 65.4567C75.0991 64.3247 73.846 62.638 73.2526 60.6847C72.6593 58.7314 72.7625 56.6328 73.5447 54.7471L61.6632 42.8588V74.1465C63.4692 75.0405 64.9143 76.5264 65.7575 78.3566C66.6008 80.1867 66.7913 82.2506 66.2973 84.2042C65.8033 86.1578 64.6546 87.8831 63.0428 89.0925C61.4309 90.3019 59.4532 90.9223 57.4394 90.8504C55.4255 90.7785 53.4971 90.0185 51.9757 88.6972C50.4542 87.3759 49.4316 85.5731 49.0782 83.5893C48.7248 81.6054 49.0621 79.5604 50.0337 77.795C51.0054 76.0296 52.5527 74.6506 54.4179 73.8878V42.3125C53.3418 41.8716 52.3636 41.2221 51.5398 40.4013C50.7159 39.5806 50.0626 38.6049 49.6176 37.5305C49.1726 36.4561 48.9447 35.3042 48.947 34.1413C48.9492 32.9784 49.1816 31.8275 49.6308 30.7548L36.5993 17.7165L2.16971 52.1452C1.48185 52.8327 0.936191 53.649 0.563904 54.5475C0.191617 55.4459 0 56.4089 0 57.3814C0 58.3539 0.191617 59.3169 0.563904 60.2154C0.936191 61.1138 1.48185 61.9301 2.16971 62.6176L52.3838 112.83C53.0713 113.518 53.8876 114.064 54.7861 114.436C55.6845 114.808 56.6475 115 57.6201 115C58.5926 115 59.5556 114.808 60.4541 114.436C61.3526 114.064 62.1689 113.518 62.8564 112.83L112.833 62.8548C114.221 61.4654 115 59.5821 115 57.6186C115 55.6551 114.221 53.7718 112.833 52.3824" fill="#0FFFF1"/>
</svg>
