<svg width="52" height="52" viewBox="0 0 52 52" fill="none" xmlns="http://www.w3.org/2000/svg">
<path fill-rule="evenodd" clip-rule="evenodd" d="M26 0C11.635 0 0 11.9293 0 26.6576C0 38.4536 7.4425 48.4169 17.7775 51.9491C19.0775 52.1823 19.565 51.3826 19.565 50.6828C19.565 50.0497 19.5325 47.9504 19.5325 45.7178C13 46.9508 11.31 44.0851 10.79 42.5856C10.4975 41.8192 9.23 39.4533 8.125 38.8202C7.215 38.3204 5.915 37.0874 8.0925 37.0541C10.14 37.0208 11.6025 38.9868 12.09 39.7865C14.43 43.8185 18.1675 42.6855 19.6625 41.9858C19.89 40.253 20.5725 39.0868 21.32 38.4203C15.535 37.7539 9.49 35.4547 9.49 25.2581C9.49 22.3591 10.4975 19.9599 12.155 18.0939C11.895 17.4274 10.985 14.695 12.415 11.0296C12.415 11.0296 14.5925 10.3298 19.565 13.762C21.645 13.1622 23.855 12.8623 26.065 12.8623C28.275 12.8623 30.485 13.1622 32.565 13.762C37.5375 10.2965 39.715 11.0296 39.715 11.0296C41.145 14.695 40.235 17.4274 39.975 18.0939C41.6325 19.9599 42.64 22.3258 42.64 25.2581C42.64 35.488 36.5625 37.7539 30.7775 38.4203C31.72 39.2534 32.5325 40.8528 32.5325 43.352C32.5325 46.9174 32.5 49.7831 32.5 50.6828C32.5 51.3826 32.9875 52.2157 34.2875 51.9491C39.4489 50.1624 43.9339 46.7612 47.1113 42.2243C50.2887 37.6873 51.9984 32.243 52 26.6576C52 11.9293 40.365 0 26 0Z" fill="white"/>
</svg>
