<svg width="52" height="52" viewBox="0 0 52 52" fill="none" xmlns="http://www.w3.org/2000/svg">
<path fill-rule="evenodd" clip-rule="evenodd" d="M6.4305e-07 4.34437C6.4305e-07 3.19217 0.457709 2.08717 1.27244 1.27244C2.08716 0.457714 3.19217 5.79165e-06 4.34436 5.79165e-06H47.6509C48.2219 -0.000926785 48.7875 0.110773 49.3152 0.328709C49.843 0.546645 50.3226 0.866538 50.7266 1.27007C51.1306 1.67361 51.451 2.15286 51.6695 2.68039C51.888 3.20792 52.0003 3.77337 52 4.34437V47.6509C52.0006 48.222 51.8886 48.7876 51.6704 49.3154C51.4522 49.8432 51.1321 50.3228 50.7284 50.7267C50.3247 51.1307 49.8453 51.4511 49.3176 51.6695C48.7899 51.888 48.2244 52.0003 47.6533 52H4.34436C3.77366 52 3.20854 51.8876 2.6813 51.6691C2.15407 51.4506 1.67504 51.1304 1.2716 50.7267C0.868157 50.3231 0.548203 49.8439 0.330017 49.3165C0.111831 48.7892 -0.000309862 48.224 6.4305e-07 47.6533V4.34437ZM20.5825 19.8262H27.6238V23.3622C28.6402 21.3295 31.2402 19.5 35.1473 19.5C42.6376 19.5 44.4127 23.5489 44.4127 30.9778V44.7389H36.8325V32.6702C36.8325 28.4393 35.8162 26.052 33.2351 26.052C29.6542 26.052 28.1651 28.626 28.1651 32.6702V44.7389H20.5825V19.8262ZM7.58255 44.4151H15.1651V19.5H7.58255V44.4127V44.4151ZM16.25 11.3738C16.2643 12.023 16.1488 12.6686 15.9102 13.2726C15.6716 13.8765 15.3148 14.4268 14.8607 14.891C14.4066 15.3552 13.8644 15.724 13.2658 15.9758C12.6672 16.2276 12.0244 16.3574 11.375 16.3574C10.7256 16.3574 10.0828 16.2276 9.4842 15.9758C8.88562 15.724 8.34337 15.3552 7.88927 14.891C7.43517 14.4268 7.07837 13.8765 6.8398 13.2726C6.60123 12.6686 6.4857 12.023 6.5 11.3738C6.52806 10.0995 7.054 8.88678 7.96518 7.99545C8.87637 7.10411 10.1003 6.60499 11.375 6.60499C12.6497 6.60499 13.8736 7.10411 14.7848 7.99545C15.696 8.88678 16.2219 10.0995 16.25 11.3738V11.3738Z" fill="white"/>
</svg>
