<svg width="134" height="88" viewBox="0 0 134 88" fill="none" xmlns="http://www.w3.org/2000/svg">
<path d="M91.6002 8.91965C90.947 8.91965 90.5115 9.00468 90.0718 9.10995V9.17473H90.1387C90.4444 9.72135 90.947 10.1465 91.3364 10.6526C91.6421 11.2235 91.9017 11.8106 92.1865 12.3815L92.2744 12.2965C92.7979 11.9361 93.0617 11.3693 93.0617 10.5028C92.844 10.2477 92.7979 9.97643 92.6053 9.74159C92.3875 9.38123 91.9059 9.19498 91.6002 8.91965ZM32.2113 80.1531H27.0437C26.8872 72.2003 26.3857 64.2573 25.5404 56.3452H25.4985L17.6257 80.1531H13.6768L5.86687 56.3452H5.79987C5.19294 64.269 4.82985 72.2084 4.71108 80.1531H0C0.255094 70.169 1.01957 60.2032 2.29063 50.292H8.7019L16.1601 72.2252H16.2019L23.7271 50.292H29.8327C31.1853 61.1756 31.9935 71.1279 32.2322 80.1531H32.2113ZM54.6318 58.1186C52.538 69.1683 49.7449 77.2054 46.3236 82.2019C43.6184 86.0605 40.6745 88 37.4667 88C36.6166 88 35.5697 87.7449 34.3051 87.2388V84.5827C34.9374 84.6677 35.6577 84.7284 36.4659 84.7284C37.9692 84.7284 39.1711 84.3073 40.0882 83.5259C41.177 82.5541 41.7256 81.4609 41.7256 80.2584C41.7256 79.4162 41.311 77.7278 40.4399 75.1567L34.7908 58.1186H39.8746L43.9324 70.8567C44.8495 73.7679 45.2432 75.7721 45.0673 76.9301C47.3118 71.1927 48.8613 64.9087 49.7365 58.1186H54.6318ZM123.464 80.1531H108.765V50.292H113.715V76.4847H123.464V80.1531ZM104.925 80.8738L99.2552 78.1732C99.7577 77.7723 100.235 77.331 100.675 76.8249C103.095 74.1039 104.297 70.0347 104.297 64.678C104.297 54.7863 100.285 49.8547 92.2577 49.8547C88.3297 49.8547 85.256 51.0977 83.0533 53.6081C80.6538 56.3492 79.431 60.3982 79.431 65.7347C79.431 70.9862 80.4988 74.8247 82.6387 77.2905C84.6027 79.485 87.5466 80.6025 91.4955 80.6025C92.957 80.6025 94.3096 80.4325 95.5324 80.0762L102.928 84.2507L104.955 80.8779L104.925 80.8738ZM86.5416 74.1647C85.2769 72.2252 84.6655 69.1035 84.6655 64.7994C84.6655 57.2724 87.0232 53.519 91.7552 53.519C94.2217 53.519 96.0517 54.426 97.2075 56.2197C98.4512 58.1794 99.0835 61.2606 99.0835 65.5201C99.0835 73.0917 96.705 76.9099 91.9939 76.9099C89.5064 76.9099 87.6974 76.0029 86.5206 74.2092L86.5416 74.1647ZM77.2911 71.8892C77.2911 74.4198 76.3321 76.509 74.3891 78.1084C72.4711 79.732 69.9167 80.5539 66.6671 80.5539C63.6352 80.5539 60.7332 79.6267 57.8772 77.7683L59.2089 75.1972C61.6503 76.3795 63.853 76.9706 65.8631 76.9706C67.7182 76.9706 69.1797 76.5698 70.2266 75.7883C71.2735 74.9866 71.9058 73.8691 71.9058 72.456C71.9058 70.6826 70.6202 69.1642 68.2835 67.9009C66.1227 66.7429 61.7843 64.3581 61.7843 64.3581C59.4267 62.694 58.2709 60.9205 58.2709 57.9891C58.2709 55.5637 59.1419 53.6243 60.8881 52.1464C62.6553 50.628 64.8999 49.8911 67.6931 49.8911C70.4719 49.8678 73.1961 50.6383 75.5239 52.1059L74.3263 54.677C72.4551 53.8803 70.4368 53.4575 68.3924 53.434C66.8011 53.434 65.5783 53.8146 64.7282 54.5515C63.8781 55.2884 63.3547 56.2156 63.3547 57.3777C63.3547 59.1511 64.6654 60.6695 67.0607 61.9732C69.2634 63.1312 73.6897 65.5809 73.6897 65.5809C76.1102 67.2248 77.312 68.9982 77.312 71.8851L77.2911 71.8892ZM129.662 40.2789C126.672 40.2141 124.36 40.5097 122.421 41.3114C121.877 41.5219 120.981 41.5219 120.893 42.1981C121.198 42.4937 121.24 42.9593 121.504 43.3561C121.961 44.0728 122.727 45.0445 123.447 45.5506C124.234 46.1418 125.018 46.7329 125.826 47.2391C127.287 48.1055 128.925 48.6117 130.361 49.4741C131.169 49.9802 131.998 50.6321 132.802 51.1625C133.217 51.4378 133.477 51.9237 134 52.0897V51.9845C133.736 51.6686 133.673 51.203 133.41 50.8264C133.037 50.4661 132.668 50.1503 132.296 49.794C131.204 48.392 129.894 47.1615 128.414 46.1458C127.216 45.3644 124.599 44.2671 124.117 42.9391L124.05 42.854C124.858 42.7892 125.817 42.4937 126.6 42.2831C127.865 41.9673 129.042 42.028 130.353 41.7122C130.954 41.5613 131.55 41.3926 132.141 41.2061V40.8903C131.466 40.2384 130.964 39.3517 130.265 38.7403C128.338 37.1099 126.281 35.6288 124.113 34.3107C122.936 33.5738 121.454 33.1082 120.21 32.4968C119.775 32.2862 119.012 32.181 118.77 31.8206C118.095 31.0189 117.702 29.9864 117.22 29.0349C116.125 26.9764 115.106 24.8804 114.167 22.7509C113.493 21.3378 113.1 19.945 112.27 18.6372C108.43 12.4989 104.243 8.79008 97.8314 5.14197C96.4579 4.38076 94.7996 4.06494 93.0533 3.66409C92.1153 3.6236 91.1982 3.55882 90.2602 3.51833C89.6488 3.26325 89.0625 2.59112 88.5391 2.251C86.4034 0.943188 80.905 -1.86274 79.3556 1.85016C78.3506 4.2107 80.838 6.51051 81.7132 7.69281C82.3456 8.535 83.1538 9.46626 83.6102 10.3935C83.8741 11.0251 83.9369 11.681 84.2007 12.3329C84.7911 13.9161 85.3565 15.6855 86.1438 17.1633C86.5583 17.9245 86.9938 18.7222 87.5173 19.3984C87.823 19.7992 88.3464 19.9693 88.4553 20.6212C87.9319 21.3581 87.89 22.4351 87.6052 23.3218C86.2526 27.4113 86.7761 32.4522 88.6731 35.4687C89.2845 36.3757 90.6999 38.3597 92.6011 37.5985C94.2803 36.9466 93.9118 34.8978 94.3892 33.0839C94.4981 32.6425 94.4311 32.3672 94.653 32.0716V32.1567C95.1974 33.1689 95.7209 34.1407 96.2024 35.1529C97.3373 36.9263 99.3641 38.7605 101.043 39.9833C101.939 40.6352 102.635 41.7568 103.749 42.1536V42.0483H103.661C103.422 41.7325 103.116 41.5827 102.811 41.3316C102.103 40.6543 101.447 39.929 100.847 39.1614C99.2971 37.1369 97.9026 34.9019 96.6798 32.602C96.0908 31.4657 95.5529 30.3053 95.0676 29.124C94.8498 28.7029 94.8498 28.047 94.4771 27.8364C93.9118 28.6179 93.0827 29.29 92.689 30.282C91.9687 31.8206 91.9017 33.7398 91.6212 35.7238C91.4914 35.7643 91.5542 35.7238 91.4914 35.8088C90.2937 35.5133 89.8791 34.331 89.4394 33.3187C88.3046 30.7476 88.1287 26.6339 89.0918 23.6822C89.3557 22.921 90.4654 20.5402 90.0299 19.8235C89.7912 19.1271 89.05 18.7262 88.6563 18.1796C88.1538 17.5035 87.6513 16.641 87.3037 15.8798C86.4076 13.8553 85.9721 11.6203 84.9922 9.59583C84.5566 8.66861 83.7694 7.69686 83.137 6.83443C82.4168 5.86268 81.6337 5.17031 81.0851 4.0285C80.8883 3.62765 80.6286 2.97577 80.9343 2.55063C81.0013 2.25505 81.1521 2.14978 81.4578 2.06475C81.9394 1.6639 83.3339 2.17003 83.8154 2.40082C85.189 2.92718 86.3448 3.4333 87.5005 4.19451C88.024 4.55487 88.5893 5.22699 89.2677 5.41729H90.055C91.2527 5.67238 92.5843 5.48208 93.6982 5.81814C95.6832 6.42954 97.4713 7.31626 99.0835 8.28396C104.014 11.3442 108.023 15.6064 110.708 20.6414C111.165 21.4633 111.362 22.2246 111.776 23.087C112.538 24.8807 113.522 26.6703 114.306 28.379C115.089 30.0876 115.834 31.8165 116.965 33.2296C117.53 33.9908 119.758 34.3876 120.78 34.7682C121.521 35.1043 122.677 35.3999 123.33 35.7805C124.616 36.5417 125.88 37.4041 127.082 38.2463C127.693 38.6472 129.549 39.5541 129.657 40.2708L129.662 40.2789Z" fill="#0FFFF1"/>
</svg>
