<svg width="144" height="75" viewBox="0 0 144 75" fill="none" xmlns="http://www.w3.org/2000/svg">
<path d="M72 0C31.626 0 0 16.4712 0 37.5C0 58.5288 31.626 75 72 75C112.374 75 144 58.5288 144 37.5C144 16.4712 112.374 0 72 0ZM64.524 11.5385H72.384L69.888 23.0769H76.908C81.36 23.0769 84.348 23.6769 86.052 25.1712C87.714 26.6481 88.218 29.0712 87.552 32.3712L84.432 46.1538H76.44L79.314 33.4096C79.662 31.6615 79.524 30.4442 78.912 29.8038C78.306 29.1635 76.968 28.8462 74.964 28.8462H68.67L64.872 46.1538H57L64.524 11.5385ZM30 23.0769H45.996C53.622 23.0769 58.242 27.9923 56.436 35.325C54.336 43.8462 48.72 46.1538 38.376 46.1538H33.432L31.866 54.8077H23.916L30 23.0769ZM93 23.0769H108.996C116.622 23.0769 121.242 27.9923 119.436 35.325C117.336 43.8462 111.714 46.1538 101.376 46.1538H96.432L94.866 54.8077H86.916L93 23.0769ZM36.81 28.8462L34.548 40.3846H39.678C44.118 40.3846 48.246 39.9 48.936 33.5308C49.194 31.0673 48.126 28.8462 42.996 28.8462H36.81ZM99.81 28.8462L97.548 40.3846H102.678C107.118 40.3846 111.246 39.9 111.936 33.5308C112.194 31.0673 111.132 28.8462 105.996 28.8462H99.81Z" fill="#0FFFF1"/>
</svg>
